# xmcd
#
# Track frame offsets:
#	150
#	19122
#	37147
#	52565
#	67627
#	86342
#	104330
#
# Disc length: 1752 seconds
#
# Revision: 1
# Processed by: cddbd v1.4PL0 Copyright (c) Steve Scherf et al.
# Submitted via: EasyCDDAExtractor 5.1.0
#
DISCID=4606d607
DTITLE=Ronnie Milsap - Keyed Up
DYEAR=1983
DGENRE=Country
TTITLE0=Stranger In My House
TTITLE1=Show Her
TTITLE2=Don't Your Mem'ry Ever Sleep At Night
TTITLE3=Don't You Know How Much I Love You
TTITLE4=Like Children I Have Known
TTITLE5=Is It Over
TTITLE6=We're Here To Love
EXTD=
EXTT0=
EXTT1=
EXTT2=
EXTT3=
EXTT4=
EXTT5=
EXTT6=
PLAYORDER=
